<svg width="21" height="21" viewBox="0 0 21 21" fill="none" xmlns="http://www.w3.org/2000/svg">
<path d="M16.2319 16.4704C15.1159 16.4704 14.213 17.394 14.213 18.5228C14.213 19.6517 15.1159 20.5753 16.2319 20.5753C17.3478 20.5753 18.2609 19.6517 18.2609 18.5228C18.2609 17.394 17.3478 16.4704 16.2319 16.4704ZM6.08696 16.4704C4.97101 16.4704 4.06812 17.394 4.06812 18.5228C4.06812 19.6517 4.97101 20.5753 6.08696 20.5753C7.2029 20.5753 8.11594 19.6517 8.11594 18.5228C8.11594 17.394 7.2029 16.4704 6.08696 16.4704ZM6.08696 13.3917L7.2029 11.3393H14.7609C15.5217 11.3393 16.1913 10.9185 16.5362 10.2823L21 2.10323H4.27101L3.31739 0.0507812H0V2.10323H2.02899L5.68116 9.89229L2.65797 15.4442H18.2609V13.3917H6.08696Z" fill="white"/>
</svg>
